<?xml version="1.0" encoding="UTF-8"?>
<svg viewBox="0 0 640 480" xmlns="http://www.w3.org/2000/svg">
 <g fill="#fff" stroke-width="2.587">
  <path d="m304.19 154.1c-37.514 0-69.203 23.924-79.062 56.594-4.1045-2.3209-8.8264-3.6562-13.875-3.6562-15.613 0-28.281 12.668-28.281 28.281 0 0.15903-0.002625 0.31036 0 0.46875-4.6769-0.95819-9.5806-1.5-14.656-1.5-30.947 0-56.062 19.018-56.062 42.438 0 23.419 25.116 42.438 56.062 42.438 12.257 0 23.583-3.0059 32.812-8.0625 5.5122 16.492 21.068 28.406 39.406 28.406 12.427 0 23.569-5.4713 31.188-14.125 7.3906 3.866 16.082 6.0938 25.375 6.0938 12.644 0 24.184-4.1131 32.844-10.875 11.67 12.111 28.829 19.781 47.969 19.781 23.481 0 44.002-11.553 55.031-28.688 1.6603 0.24335 3.3638 0.375 5.0938 0.375 18.68 0 33.812-14.69 33.812-32.812s-15.133-32.844-33.812-32.844c-3.3425 0-6.5745 0.49783-9.625 1.375-10.066-11.865-25.115-20.091-42.312-22.094-3.5178-40.082-38.849-71.594-81.906-71.594z" stroke="#000"/>
  <path d="m302.4 152.32c-34.29 0.10255-67.814 23.008-78.469 55.719-15.509-7.8648-36.341 1.2334-41.375 17.781-0.82463 2.5093-1.366 5.14-1.5 7.7812-24.333-4.2852-53.11 3.6778-66.156 25.875-8.7258 14.482-4.4849 34.126 7.9375 45.062 20.145 19.159 53.129 21.183 77.281 9.8125 7.8359 20.927 33.259 32.766 54.406 25.062 6.7348-2.179 12.871-6.496 17.75-11.312 18.137 8.749 41.098 7.1945 57.469-4.6562 26.258 26.371 74.153 25.298 98.844-2.6562 2.9487-2.0137 3.7909-7.9038 8.0938-6.5625 19.945 1.384 38.725-16.469 37.125-36.625-0.65234-20.76-22.112-36.666-42.25-32.406-4.1534 1.721-5.7444-4.4195-9.1562-5.9688-9.6567-8.4839-22.475-13.107-34.5-15.438-3.6649-36.201-34.977-65.817-70.583-70.519-4.9207-0.74521-9.9272-1.0654-14.917-0.95009z" stroke="#a3ced5"/>
 </g>
</svg>
